<?xml version="1.0" encoding="utf-8"?>
<!-- Generator: Adobe Illustrator 23.1.1, SVG Export Plug-In . SVG Version: 6.00 Build 0)  -->
<svg version="1.2" baseProfile="tiny" id="Layer_1" xmlns="http://www.w3.org/2000/svg" xmlns:xlink="http://www.w3.org/1999/xlink"
	 x="0px" y="0px" viewBox="0 0 391.07 87.22" xml:space="preserve">
<g>
	<path fill="#000000" d="M105.49,14.25c0,0.97,0.32,1.31,1.42,1.31h0.66v0.34h-5.65v-0.34h0.66c1.09,0,1.42-0.34,1.42-1.31V5.38
		h-3.12c-0.72,0-1.04,0.41-1.31,1.99h-0.32l0.29-2.91h0.34c0.02,0.11,0.09,0.18,0.2,0.21c0.11,0.04,0.23,0.05,0.36,0.05h8.63
		c0.25,0,0.52-0.05,0.56-0.27h0.34l0.29,2.91h-0.32c-0.27-1.58-0.59-1.99-1.31-1.99h-3.12v8.88H105.49z"/>
	<path fill="#000000" d="M121.34,10.57v3.41c0,1.17,0.23,1.58,1.44,1.58h0.05v0.34h-4.5v-0.34h0.11c1.06,0,1.42-0.29,1.42-1.31v-7.9
		c0-0.93-0.31-1.2-1.29-1.27V4.73h4.27v0.34c-1.27,0-1.49,0.34-1.49,1.72v3.12h7.03V6.39c0-0.95-0.31-1.31-1.42-1.31h-0.34V4.73
		h4.61v0.34c-1.08,0.04-1.36,0.36-1.36,1.47V14c0,1.27,0.36,1.56,1.44,1.56h0.18v0.34h-5.08v-0.34h0.56c1.16,0,1.42-0.41,1.42-1.35
		v-3.64C128.39,10.57,121.34,10.57,121.34,10.57z"/>
	<path fill="#000000" d="M142.74,10.94l-1.04,2.82c-0.13,0.34-0.36,0.88-0.36,1.13c0,0.48,0.47,0.66,1.46,0.66h0.28v0.34h-4.14
		v-0.34c1.17-0.02,1.36-0.22,1.94-1.78l3.27-8.92l-0.16-0.4h1.56l3.75,9.96c0.36,0.95,0.74,1.13,1.63,1.13v0.34H146v-0.34h0.47
		c1.02,0,1.4-0.11,1.4-0.61c0-0.29-0.12-0.56-0.2-0.74l-1.2-3.27h-3.73V10.94z M144.57,5.97l-1.52,4.18h3.1L144.57,5.97z"/>
	<path fill="#000000" d="M165.39,6.37c0.57-0.99,0.23-1.29-0.91-1.29V4.73h4.06v0.34c-1.22,0.09-1.74,0.58-2.24,1.42l-2.98,5.04
		v2.69c0,0.95,0.34,1.33,1.43,1.33h0.23v0.34h-4.93v-0.34h0.34c1.11,0,1.43-0.41,1.43-1.29v-2.53l-3.19-4.99
		c-0.88-1.38-1.29-1.63-2.46-1.67V4.73h4.77v0.34c-1.4,0-1.49,0.34-0.95,1.17l2.87,4.43L165.39,6.37z"/>
	<path fill="#000000" d="M184.13,11.86h-0.34c-0.14-1.27-0.49-1.42-1.22-1.42h-3.03v3.82c0,0.83,0.31,0.99,0.97,0.99h2.76
		c1.25,0,1.63-0.48,2.08-2.03h0.33l-0.29,2.67h-9.53v-0.34h0.5c1.43,0,1.69-0.4,1.69-1.47V6.51c0-1-0.23-1.44-1.44-1.44h-0.39V4.73
		h8.61l0.14,2.49h-0.32c-0.23-1.52-0.68-1.85-1.33-1.85h-3.79V9.8h3.21c0.65,0,0.95-0.3,1.04-1.34h0.34L184.13,11.86L184.13,11.86z"
		/>
	<path fill="#000000" d="M197.59,14.21c0,1.08,0.44,1.35,1.46,1.35h0.42v0.34h-5.14v-0.34h0.3c1.06,0,1.44-0.29,1.44-1.49V6.51
		c0-1.11-0.31-1.44-1.35-1.44h-0.4V4.73c0.43,0,1.53-0.07,2.27-0.11c0.75-0.04,1.11-0.05,2.3-0.05c3.35,0,4.84,1.36,4.84,3.19
		c0,1.35-0.91,2.48-2.39,2.91c0.67,0.52,1.21,1.02,2.05,1.87l1.42,1.42c1.06,1.06,2.15,1.72,3.54,1.81v0.32
		c-3.14,0.14-3.95-0.54-5.55-2.14l-1.19-1.18c-0.8-0.79-1.43-1.31-1.87-1.6c-0.45,0.02-0.75,0.04-1.24,0.04
		c-0.4,0-0.64-0.02-0.93-0.04v3.04H197.59z M197.59,10.84c0.44,0.05,0.71,0.04,1.13,0.04c2.02,0,3.34-0.84,3.34-3
		c0-1.67-0.76-2.96-3.56-2.96c-0.35,0-0.58,0-0.91,0.04V10.84z"/>
	<path fill="#000000" d="M229.19,13.17c0.38,1.6,1.63,2.53,3.03,2.53c1.2,0,2.47-0.7,2.47-2.12c0-2.58-5.76-3.37-5.76-6.51
		c0-1.49,1.36-2.6,3.2-2.6c1.51,0,1.81,0.45,2.44,0.45c0.14,0,0.22-0.04,0.32-0.18h0.29l0.3,2.28h-0.3
		c-0.5-1.29-1.65-2.12-2.89-2.12c-1.18,0-2.01,0.68-2.01,1.69c0,2.55,5.76,3.23,5.76,6.53c0,1.76-1.56,3.07-3.66,3.07
		c-0.99,0-2.24-0.48-2.49-0.48c-0.16,0-0.29,0.09-0.36,0.2h-0.31l-0.38-2.73h0.35V13.17z"/>
	<path fill="#000000" d="M255.41,7.68c-0.59-1.67-2.14-2.76-4.09-2.76c-3,0-4.86,2.17-4.86,5.18c0,3.25,2.33,5.63,5.06,5.63
		c1.42,0,3.16-0.48,4.38-2.65h0.34c-0.23,0.81-0.72,1.92-1.15,2.62c-1.15-0.16-1.94,0.48-4.06,0.48c-3.64,0-6.26-2.4-6.26-5.72
		c0-3.48,2.69-5.99,6.44-5.99c2.26,0,3.23,0.72,3.79,0.72c0.2,0,0.29-0.05,0.32-0.11h0.27l0.16,2.6
		C255.75,7.68,255.41,7.68,255.41,7.68z"/>
	<path fill="#000000" d="M267.45,10.57v3.41c0,1.17,0.23,1.58,1.44,1.58h0.05v0.34h-4.5v-0.34h0.11c1.06,0,1.42-0.29,1.42-1.31v-7.9
		c0-0.93-0.3-1.2-1.29-1.27V4.73h4.27v0.34c-1.27,0-1.49,0.34-1.49,1.72v3.12h7.03V6.39c0-0.95-0.3-1.31-1.42-1.31h-0.34V4.73h4.61
		v0.34c-1.08,0.04-1.36,0.36-1.36,1.47V14c0,1.27,0.36,1.56,1.44,1.56h0.18v0.34h-5.08v-0.34h0.56c1.17,0,1.42-0.41,1.42-1.35v-3.64
		C274.5,10.57,267.45,10.57,267.45,10.57z"/>
	<path fill="#000000" d="M292.56,16.18c-3.52,0-6.48-2.26-6.48-5.62c0-3.57,2.75-6.1,6.57-6.1c3.39,0,6.3,2.31,6.3,5.54
		C298.95,13.64,296.05,16.18,292.56,16.18z M292.19,4.92c-3.16,0-4.42,2.94-4.42,5.09c0,3.36,2.28,5.72,5.17,5.72
		c2.93,0,4.32-2.58,4.32-5.13C297.27,7.27,295.15,4.92,292.19,4.92z"/>
	<path fill="#000000" d="M314.3,16.18c-3.52,0-6.48-2.26-6.48-5.62c0-3.57,2.75-6.1,6.57-6.1c3.39,0,6.3,2.31,6.3,5.54
		C320.68,13.64,317.78,16.18,314.3,16.18z M313.92,4.92c-3.16,0-4.41,2.94-4.41,5.09c0,3.36,2.28,5.72,5.17,5.72
		c2.93,0,4.33-2.58,4.33-5.13C319,7.27,316.88,4.92,313.92,4.92z"/>
	<path fill="#000000" d="M336.95,15.9h-8.02v-0.34h0.59c0.82,0,1.13-0.27,1.13-1.18V6.42c0-0.95-0.29-1.35-1.42-1.35h-0.25V4.73h5.3
		v0.34h-0.67c-1.17,0-1.47,0.13-1.47,1.24v8.27c0,0.49,0.2,0.67,0.72,0.67h2.64c1.06,0,1.38-0.41,2.51-1.97h0.32L336.95,15.9z"/>
	<path fill="#000000" d="M366.05,16.18c-3.52,0-6.48-2.26-6.48-5.62c0-3.57,2.74-6.1,6.57-6.1c3.39,0,6.3,2.31,6.3,5.54
		C372.44,13.64,369.53,16.18,366.05,16.18z M365.67,4.92c-3.16,0-4.42,2.94-4.42,5.09c0,3.36,2.28,5.72,5.17,5.72
		c2.92,0,4.33-2.58,4.33-5.13C370.75,7.27,368.63,4.92,365.67,4.92z"/>
	<path fill="#000000" d="M388.44,11.61h-0.31c-0.04-1.04-0.41-1.36-1.27-1.36h-3.32v3.93c0,1,0.22,1.38,1.56,1.38v0.34h-4.36v-0.34
		c1.11-0.07,1.31-0.31,1.31-1.76V6.76c0-1.15-0.09-1.67-1.35-1.69V4.73h8.04v2.12h-0.3c-0.02-1.04-0.38-1.47-1.49-1.47h-3.41V9.6
		h3.55c0.66,0,0.99-0.38,1.04-1.15h0.31L388.44,11.61L388.44,11.61z"/>
	<path fill="#000000" d="M115.68,39.06h-0.76c-0.32-2.82-1.07-3.14-2.7-3.14h-6.72v8.47c0,1.83,0.68,2.19,2.15,2.19h6.13
		c2.78,0,3.62-1.07,4.61-4.49h0.72l-0.64,5.93H97.34v-0.76h1.12c3.18,0,3.74-0.87,3.74-3.26V27.21c0-2.23-0.52-3.18-3.18-3.18h-0.88
		v-0.76h19.09l0.32,5.53h-0.72c-0.52-3.38-1.51-4.1-2.94-4.1h-8.39v9.78h7.12c1.43,0,2.11-0.68,2.31-2.98h0.76L115.68,39.06
		L115.68,39.06z"/>
	<path fill="#000000" d="M148.82,48.29l-20.6-21.56v17.06c0,2.87,0.64,3.46,4.02,3.46v0.76H123v-0.76h0.16
		c2.47,0,3.26-0.84,3.26-2.66V25.02c-0.91-0.64-1.95-0.95-3.34-0.99v-0.76h6.24l18.74,19.53V26.97c0-2.43-0.72-2.86-3.9-2.94v-0.76
		h9.31v0.76c-2.99,0-3.62,0.52-3.62,2.07v22.2L148.82,48.29L148.82,48.29z"/>
	<path fill="#000000" d="M178.7,46.14c-3.94,2.03-8.99,2.5-10.66,2.5c-8.71,0-12.77-6.72-12.77-12.53c0-5.97,4.18-13.45,13.88-13.45
		c4.26,0,7.08,1.35,7.92,1.35c0.36,0,0.68-0.08,0.91-0.28h0.56v6.44h-0.8c-1.07-4.97-4.46-6.52-8.15-6.52
		c-7,0-10.58,5.81-10.58,12.21c0,8.15,5.73,11.77,10.3,11.77c1.83,0,3.86-0.4,6.09-1.51v-5.01c0-2.27-0.8-3.02-3.18-3.02h-1.47
		v-0.72h10.74v0.72c-1.99,0.12-2.78,0.8-2.78,2.5v5.55H178.7z"/>
	<path fill="#000000" d="M195.09,48.01h-9.67v-0.76c2.47-0.12,2.98-0.76,2.98-3.42V26.89c0-2.15-0.76-2.75-2.98-2.86v-0.76h9.67
		v0.76c-2.51,0-3.38,0.56-3.38,3.22v16.87c0,2.35,0.64,3.14,3.38,3.14V48.01z"/>
	<path fill="#000000" d="M226.1,48.29l-20.6-21.56v17.06c0,2.87,0.64,3.46,4.02,3.46v0.76h-9.23v-0.76h0.16
		c2.47,0,3.26-0.84,3.26-2.66V25.02c-0.92-0.64-1.95-0.95-3.34-0.99v-0.76h6.24l18.74,19.53V26.97c0-2.43-0.72-2.86-3.9-2.94v-0.76
		h9.31v0.76c-2.98,0-3.62,0.52-3.62,2.07v22.2L226.1,48.29L226.1,48.29z"/>
	<path fill="#000000" d="M253.13,39.06h-0.76c-0.32-2.82-1.07-3.14-2.71-3.14h-6.72v8.47c0,1.83,0.68,2.19,2.15,2.19h6.12
		c2.79,0,3.62-1.07,4.61-4.49h0.72l-0.64,5.93h-21.12v-0.76h1.11c3.18,0,3.74-0.87,3.74-3.26V27.21c0-2.23-0.52-3.18-3.18-3.18
		h-0.87v-0.76h19.09L255,28.8h-0.71c-0.52-3.38-1.51-4.1-2.94-4.1h-8.39v9.78h7.12c1.43,0,2.11-0.68,2.31-2.98h0.76v7.56H253.13z"/>
	<path fill="#000000" d="M278.48,39.06h-0.76c-0.32-2.82-1.07-3.14-2.71-3.14h-6.72v8.47c0,1.83,0.68,2.19,2.15,2.19h6.13
		c2.78,0,3.62-1.07,4.61-4.49h0.72l-0.64,5.93h-21.12v-0.76h1.11c3.18,0,3.74-0.87,3.74-3.26V27.21c0-2.23-0.52-3.18-3.18-3.18
		h-0.88v-0.76h19.09l0.32,5.53h-0.72c-0.52-3.38-1.51-4.1-2.94-4.1h-8.39v9.78h7.12c1.43,0,2.11-0.68,2.31-2.98h0.76L278.48,39.06
		L278.48,39.06z"/>
	<path fill="#000000" d="M293.8,44.27c0,2.39,0.95,2.98,3.18,2.98h0.91v0.76h-11.26v-0.76h0.68c2.35,0,3.18-0.64,3.18-3.3V27.21
		c0-2.47-0.68-3.18-2.98-3.18h-0.87v-0.76c0.95,0,3.38-0.16,5.01-0.24s2.42-0.12,5.01-0.12c7.36,0,10.66,3.02,10.66,7.08
		c0,2.98-2.03,5.49-5.29,6.44c1.47,1.15,2.66,2.27,4.53,4.14l3.14,3.14c2.35,2.35,5.27,3.34,7.27,3.54v0.76
		c-5.9,0.32-8.19-0.76-11.73-4.3l-2.62-2.62c-1.75-1.75-3.14-2.9-4.1-3.54c-1,0.04-1.63,0.08-2.71,0.08c-0.88,0-1.39-0.04-2.03-0.08
		v6.72H293.8z M293.8,36.79c0.95,0.12,1.55,0.08,2.47,0.08c4.42,0,7.32-1.87,7.32-6.64c0-3.7-1.67-6.56-7.79-6.56
		c-0.76,0-1.27,0-1.99,0.08v13.04H293.8z"/>
	<path fill="#000000" d="M326.65,48.01h-9.67v-0.76c2.47-0.12,2.98-0.76,2.98-3.42V26.89c0-2.15-0.76-2.75-2.98-2.86v-0.76h9.67
		v0.76c-2.51,0-3.38,0.56-3.38,3.22v16.87c0,2.35,0.64,3.14,3.38,3.14V48.01z"/>
	<path fill="#000000" d="M358.13,48.29l-20.6-21.56v17.06c0,2.87,0.64,3.46,4.02,3.46v0.76h-9.23v-0.76h0.16
		c2.47,0,3.26-0.84,3.26-2.66V25.02c-0.92-0.64-1.95-0.95-3.34-0.99v-0.76h6.25l18.73,19.53V26.97c0-2.43-0.71-2.86-3.9-2.94v-0.76
		h9.31v0.76c-2.98,0-3.62,0.52-3.62,2.07v22.2L358.13,48.29L358.13,48.29z"/>
	<path fill="#000000" d="M388.29,46.14c-3.94,2.03-8.99,2.5-10.66,2.5c-8.71,0-12.77-6.72-12.77-12.53
		c0-5.97,4.18-13.45,13.88-13.45c4.26,0,7.08,1.35,7.92,1.35c0.36,0,0.67-0.08,0.92-0.28h0.56v6.44h-0.8
		c-1.07-4.97-4.45-6.52-8.15-6.52c-7,0-10.58,5.81-10.58,12.21c0,8.15,5.73,11.77,10.3,11.77c1.83,0,3.86-0.4,6.09-1.51v-5.01
		c0-2.27-0.8-3.02-3.18-3.02h-1.47v-0.72h10.74v0.72c-1.99,0.12-2.78,0.8-2.78,2.5v5.55H388.29z"/>
	<path fill="#000000" d="M102.28,66.51l-1.8,4.88c-0.22,0.59-0.62,1.52-0.62,1.95c0,0.84,0.81,1.15,2.51,1.15h0.49v0.59H95.7v-0.59
		c2.02-0.03,2.36-0.37,3.36-3.07l5.65-15.43l-0.28-0.68h2.7l6.49,17.23c0.62,1.65,1.27,1.96,2.83,1.96v0.59h-8.54V74.5h0.81
		c1.77,0,2.42-0.19,2.42-1.05c0-0.5-0.22-0.96-0.34-1.27l-2.08-5.65h-6.44V66.51z M105.45,57.91l-2.64,7.24h5.37L105.45,57.91z"/>
	<path fill="#000000" d="M128.47,72.22c0,1.68,0.56,2.27,2.45,2.27h1.15v0.59h-9.78v-0.59h1.15c1.89,0,2.45-0.59,2.45-2.27V56.88
		h-5.4c-1.24,0-1.8,0.71-2.27,3.45h-0.56l0.5-5.03h0.59c0.03,0.19,0.15,0.31,0.34,0.37c0.19,0.06,0.41,0.1,0.62,0.1h14.93
		c0.44,0,0.9-0.1,0.96-0.47h0.59l0.5,5.03h-0.56c-0.47-2.73-1.02-3.45-2.27-3.45h-5.4v15.34H128.47z"/>
	<path fill="#000000" d="M157.18,58.87c0-2.02-0.53-2.52-2.36-2.52h-0.62v-0.59c1.15-0.06,2.67-0.13,4.38-0.19
		c1.71-0.06,3.6-0.1,5.21-0.1c8.2,0,11.83,4.16,11.83,9.28c0,4.69-3.63,10.31-11.49,10.31h-9.94v-0.59h0.53
		c1.68,0,2.45-0.46,2.45-2.27L157.18,58.87L157.18,58.87z M159.76,72.78c0,1.27,0.09,1.71,2.55,1.71c4.16,0,5.9-0.59,7.82-2.51
		c1.15-1.12,2.58-3.51,2.58-6.71c0-2.3-0.65-4.84-2.48-6.68c-1.43-1.43-3.63-2.51-7.98-2.51c-1.27,0-2.11,0.09-2.48,0.12v16.58
		H159.76z"/>
	<path fill="#000000" d="M186.26,66.51l-1.8,4.88c-0.22,0.59-0.62,1.52-0.62,1.95c0,0.84,0.81,1.15,2.52,1.15h0.5v0.59h-7.17v-0.59
		c2.02-0.03,2.36-0.37,3.35-3.07l5.65-15.43l-0.28-0.68h2.7l6.48,17.23c0.62,1.65,1.27,1.96,2.83,1.96v0.59h-8.53V74.5h0.81
		c1.77,0,2.42-0.19,2.42-1.05c0-0.5-0.22-0.96-0.34-1.27l-2.08-5.65h-6.44V66.51z M189.42,57.91l-2.64,7.24h5.37L189.42,57.91z"/>
	<path fill="#000000" d="M210.77,72.16c0,1.86,0.75,2.33,2.48,2.33h0.71v0.59h-8.79v-0.59h0.53c1.83,0,2.48-0.5,2.48-2.58V58.84
		c0-1.93-0.53-2.48-2.33-2.48h-0.68v-0.59c0.74,0,2.64-0.13,3.91-0.19c1.27-0.06,1.89-0.1,3.91-0.1c5.75,0,8.32,2.36,8.32,5.53
		c0,2.33-1.58,4.28-4.13,5.03c1.15,0.9,2.08,1.77,3.54,3.23l2.45,2.45c1.83,1.83,3.73,2.98,6.11,3.13v0.56
		c-5.43,0.25-6.83-0.93-9.59-3.7l-2.05-2.05c-1.36-1.37-2.45-2.27-3.2-2.76c-0.77,0.03-1.27,0.06-2.11,0.06
		c-0.68,0-1.09-0.03-1.58-0.06v5.26H210.77z M210.77,66.32c0.75,0.09,1.21,0.06,1.92,0.06c3.45,0,5.71-1.46,5.71-5.19
		c0-2.89-1.3-5.12-6.09-5.12c-0.59,0-0.99,0-1.55,0.06L210.77,66.32L210.77,66.32z"/>
	<path fill="#000000" d="M240.88,72.22c0,1.68,0.56,2.27,2.45,2.27h1.15v0.59h-9.78v-0.59h1.15c1.9,0,2.45-0.59,2.45-2.27V56.88
		h-5.4c-1.24,0-1.8,0.71-2.27,3.45h-0.56l0.5-5.03h0.59c0.03,0.19,0.15,0.31,0.34,0.37c0.19,0.06,0.4,0.1,0.62,0.1h14.93
		c0.43,0,0.9-0.1,0.96-0.47h0.59l0.5,5.03h-0.56c-0.47-2.73-1.03-3.45-2.27-3.45h-5.4v15.34H240.88z"/>
	<path fill="#000000" d="M267.06,75.08l-7.92-16.55h-0.06l-0.84,13.97c-0.09,1.58,1.09,1.93,2.48,1.99v0.59h-6.46v-0.59
		c2.27,0,2.55-0.5,2.7-3.32l0.75-12.08c0.12-2.05,0.06-2.61-1.86-2.73V55.8h4.69l7.48,15.65l7.45-15.65h4.56v0.56
		c-1.52,0.12-2.11,0.15-2.05,1.21l0.99,14.07c0.19,2.86,0.43,2.86,2.7,2.86v0.59h-7.98V74.5c1.46,0,2.89-0.4,2.76-2.05l-0.9-13.91
		h-0.06l-7.73,16.55L267.06,75.08L267.06,75.08z"/>
	<path fill="#000000" d="M297.42,75.57c-6.09,0-11.21-3.91-11.21-9.72c0-6.18,4.75-10.56,11.36-10.56c5.87,0,10.9,4.01,10.9,9.6
		C308.48,71.16,303.45,75.57,297.42,75.57z M296.77,56.07c-5.46,0-7.64,5.09-7.64,8.82c0,5.8,3.94,9.9,8.94,9.9
		c5.06,0,7.48-4.47,7.48-8.88C305.56,60.14,301.9,56.07,296.77,56.07z"/>
	<path fill="#000000" d="M337.53,55.76v0.59c-2.08,0.03-2.82,0.87-2.82,2.86v8.38c0,3.85-2.45,7.98-9.19,7.98
		c-5.93,0-8.97-3.38-8.97-7.82v-9.07c0-1.99-0.56-2.3-2.67-2.33v-0.59h7.98v0.59h-0.28c-1.71,0-2.45,0.46-2.45,2.27v8.63
		c0,4.19,2.45,6.71,7.08,6.71c3.51,0,7.08-1.46,7.08-6.74v-7.24c0-2.98-0.47-3.51-3.04-3.63v-0.59
		C330.25,55.76,337.53,55.76,337.53,55.76z"/>
	<path fill="#000000" d="M353.91,72.22c0,1.68,0.56,2.27,2.46,2.27h1.15v0.59h-9.78v-0.59h1.15c1.89,0,2.45-0.59,2.45-2.27V56.88
		h-5.4c-1.24,0-1.8,0.71-2.27,3.45h-0.56l0.5-5.03h0.59c0.03,0.19,0.15,0.31,0.34,0.37c0.19,0.06,0.4,0.1,0.62,0.1h14.93
		c0.43,0,0.9-0.1,0.96-0.47h0.59l0.5,5.03h-0.56c-0.47-2.73-1.02-3.45-2.27-3.45h-5.4V72.22z"/>
	<path fill="#000000" d="M372.99,65.85v5.9c0,2.02,0.41,2.73,2.49,2.73h0.09v0.59h-7.79v-0.59h0.19c1.83,0,2.45-0.5,2.45-2.27V58.56
		c0-1.61-0.53-2.08-2.23-2.2v-0.59h7.39v0.59c-2.21,0-2.58,0.59-2.58,2.98v5.4h12.17v-6.12c0-1.65-0.53-2.27-2.45-2.27h-0.59v-0.59
		h7.98v0.59c-1.86,0.06-2.36,0.62-2.36,2.55v12.89c0,2.2,0.62,2.7,2.48,2.7h0.31v0.59h-8.79v-0.59h0.96c2.02,0,2.45-0.71,2.45-2.33
		v-6.3L372.99,65.85L372.99,65.85z"/>
	<polygon fill="#000000" points="73.87,25.53 9.48,48.28 6.06,57.05 73.87,26.4 	"/>
	<polygon fill="#000000" points="73.87,29.42 25.38,66.64 33.22,68.75 73.87,30.96 	"/>
	<polygon fill="#000000" points="73.87,33.8 54.98,66.12 61.82,67.02 73.87,34.49 	"/>
	<polygon fill="#000000" points="73.87,22.55 1.87,22.51 1.9,28.5 73.87,23.4 	"/>
	<g>
		<path fill="#000000" d="M66.47,65.85c-9.73-2.43-15.86-0.84-21.26,0.57c-2.78,0.72-5.18,1.35-7.77,1.35s-4.99-0.62-7.77-1.35
			c-5.37-1.4-11.46-2.98-21.09-0.61l0.7,2.86c8.91-2.19,14.61-0.71,19.64,0.6c2.85,0.74,5.54,1.44,8.51,1.44s5.66-0.7,8.51-1.44
			c5.07-1.32,10.81-2.81,19.81-0.56L66.47,65.85z"/>
	</g>
	<g>
		<path fill="#000000" d="M59.88,71.33c-6.57-0.88-11.18,0.32-15.26,1.38c-2.57,0.67-4.78,1.24-7.18,1.24
			c-2.39,0-4.61-0.57-7.18-1.24c-4.21-1.1-8.99-2.34-15.9-1.29l0.41,2.7c6.36-0.97,10.65,0.15,14.8,1.23
			c2.63,0.68,5.12,1.33,7.86,1.33s5.23-0.65,7.86-1.33c4.02-1.04,8.17-2.12,14.21-1.31L59.88,71.33z"/>
	</g>
	<path fill="#000000" d="M17.78,66.31v-8.72H4.25c6.94-14.21,14.72-44.56,16.48-54.21c1.61,9.75,9.6,40.45,16.48,54.21H23.68v8.72
		H17.78z"/>
	<g>
		<path fill="#000000" d="M31.22,11.05h-1.59v-1l3.18-0.48v7.54h-1.58L31.22,11.05L31.22,11.05z"/>
		<path fill="#000000" d="M44.56,9.93c0.23,0.22,0.35,0.59,0.35,1.16v0.68c0,0.43-0.1,0.75-0.32,0.97s-0.58,0.38-1.12,0.48
			c0.55,0.06,0.96,0.22,1.22,0.45c0.26,0.25,0.39,0.59,0.39,1.04v0.78c0,0.61-0.13,1.03-0.41,1.26c-0.26,0.23-0.74,0.35-1.42,0.35
			h-4.79c-0.68,0-1.14-0.12-1.41-0.35c-0.28-0.22-0.41-0.65-0.41-1.26v-0.78c0-0.45,0.13-0.8,0.39-1.04
			c0.26-0.23,0.67-0.39,1.2-0.45c-0.52-0.1-0.9-0.26-1.12-0.48c-0.22-0.22-0.32-0.55-0.32-0.97v-0.68c0-0.57,0.12-0.94,0.35-1.16
			c0.23-0.2,0.7-0.3,1.36-0.3h4.67C43.86,9.63,44.33,9.73,44.56,9.93z M38.95,13.86c-0.29,0-0.48,0.04-0.57,0.13
			c-0.1,0.09-0.14,0.28-0.14,0.55v0.55c0,0.28,0.04,0.45,0.13,0.54c0.1,0.09,0.29,0.13,0.58,0.13h3.83c0.29,0,0.48-0.04,0.57-0.13
			c0.1-0.09,0.14-0.26,0.14-0.54v-0.55c0-0.28-0.04-0.46-0.14-0.55c-0.09-0.09-0.28-0.13-0.57-0.13H38.95z M39.12,10.91
			c-0.29,0-0.48,0.04-0.58,0.13c-0.1,0.1-0.14,0.28-0.14,0.55v0.38c0,0.28,0.04,0.45,0.14,0.54c0.1,0.1,0.29,0.14,0.58,0.14h3.5
			c0.28,0,0.46-0.04,0.57-0.13c0.1-0.1,0.14-0.28,0.14-0.55v-0.38c0-0.28-0.04-0.46-0.14-0.55s-0.29-0.13-0.57-0.13H39.12z"/>
		<path fill="#000000" d="M51.2,12.41c0.55-0.06,1.09-0.07,1.62-0.07c1.2,0,2.03,0.14,2.48,0.42s0.68,0.78,0.68,1.51v1.02
			c0,0.62-0.22,1.09-0.62,1.38c-0.42,0.3-1.06,0.45-1.94,0.45h-3.16c-0.94,0-1.59-0.16-1.94-0.49s-0.52-0.94-0.52-1.81v-0.99
			c0-1.39,0.48-2.47,1.45-3.23c0.96-0.77,2.32-1.15,4.08-1.15c0.07,0,0.14,0,0.22,0c0.07,0.02,0.19,0.02,0.32,0.03l1.03,1.2h-0.48
			c-1.59,0-2.74,0.15-3.45,0.44s-1.19,0.78-1.44,1.49C50.09,12.52,50.65,12.46,51.2,12.41z M49.4,13.92
			c-0.01,0.06-0.01,0.14-0.01,0.25c0,0.72,0.1,1.17,0.29,1.33c0.19,0.17,0.61,0.26,1.26,0.26h2.09c0.52,0,0.87-0.06,1.07-0.19
			c0.19-0.13,0.29-0.36,0.29-0.71v-0.41c0-0.35-0.12-0.59-0.33-0.71c-0.22-0.13-0.65-0.19-1.32-0.19c-0.54,0-1.07,0.01-1.63,0.04
			s-1.12,0.07-1.7,0.13C49.4,13.79,49.4,13.86,49.4,13.92z"/>
		<path fill="#000000" d="M64.01,10.91h-4.94v1.61l-1.58-0.28V9.63h8.31v1.2l-3.92,6.41h-1.9L64.01,10.91z"/>
	</g>
	<path fill="#000000" d="M0,0v51.25c0,16.92,22.16,31.22,37.57,35.97c15.41-4.75,37.57-19.05,37.57-35.97V0H0z M72.02,51.25
		c0,12.47-14.08,21.93-26.92,27.35c-1.65,0.63-5.28,1.36-7.57,1.36c-2.41,0-6.3-0.86-7.66-1.43h-0.01
		C17.08,73.1,3.12,63.67,3.12,51.25c0,0,0-42.51,0-45.05C7.69,5.36,23.23,2.46,37.4,2.46c14.19,0,30.1,2.79,34.62,3.75
		C72.02,8.75,72.02,51.25,72.02,51.25z"/>
</g>
</svg>
