<?xml version="1.0" standalone="no"?>
<!DOCTYPE svg PUBLIC "-//W3C//DTD SVG 20010904//EN"
 "http://www.w3.org/TR/2001/REC-SVG-20010904/DTD/svg10.dtd">
<svg version="1.0" xmlns="http://www.w3.org/2000/svg"
 width="700.000000pt" height="700.000000pt" viewBox="0 0 700.000000 700.000000"
 preserveAspectRatio="xMidYMid meet">
<metadata>
Created by potrace 1.11, written by Peter Selinger 2001-2013
</metadata>
<g transform="translate(0.000000,700.000000) scale(0.100000,-0.100000)"
fill="#000000" stroke="none">
<path d="M1026 5974 c-339 -338 -616 -617 -616 -618 0 -2 284 -287 631 -632
347 -346 688 -686 758 -756 l127 -127 120 116 c438 425 704 688 704 697 0 6
-63 74 -140 150 l-141 140 206 206 206 206 -207 207 -207 207 -358 -363 -359
-362 -155 155 -156 156 356 357 c195 197 355 361 355 365 0 8 -496 512 -504
512 -3 0 -282 -277 -620 -616z"/>
<path d="M5083 6115 c-29 -7 -70 -24 -90 -38 -21 -15 -160 -149 -310 -299
l-272 -273 543 -542 c298 -299 545 -543 548 -543 6 0 460 456 542 543 83 89
103 211 53 321 -19 41 -72 99 -248 274 -404 398 -499 491 -532 515 -62 47
-147 62 -234 42z"/>
<path d="M2485 3580 l-1610 -1610 0 -545 c0 -300 2 -546 5 -546 3 -1 248 -2
545 -3 l540 -2 1613 1612 c886 887 1612 1615 1612 1617 0 8 -1081 1087 -1088
1087 -4 0 -732 -725 -1617 -1610z"/>
<path d="M5006 2509 l-359 -360 -146 145 -146 146 -258 -258 -258 -258 756
-757 c416 -416 758 -757 760 -757 4 0 1235 1231 1235 1236 0 8 -505 504 -513
504 -5 0 -98 -88 -207 -196 -109 -108 -202 -195 -207 -195 -4 1 -55 45 -112
99 -57 53 -124 116 -150 140 l-46 43 213 207 213 207 -207 208 c-114 114 -208
207 -208 207 -1 0 -163 -162 -360 -361z"/>
</g>
</svg>
